<svg width="38" height="14" viewBox="0 0 38 14" fill="none" xmlns="http://www.w3.org/2000/svg">
<path d="M9.99121 8.93945C9.83301 10.293 9.33203 11.3389 8.48828 12.0771C7.65039 12.8096 6.53418 13.1758 5.13965 13.1758C3.62793 13.1758 2.41504 12.6338 1.50098 11.5498C0.592773 10.4658 0.138672 9.01562 0.138672 7.19922V5.96875C0.138672 4.7793 0.349609 3.7334 0.771484 2.83105C1.19922 1.92871 1.80273 1.2373 2.58203 0.756836C3.36133 0.270508 4.26367 0.0273438 5.28906 0.0273438C6.64844 0.0273438 7.73828 0.408203 8.55859 1.16992C9.37891 1.92578 9.85645 2.97461 9.99121 4.31641H8.29492C8.14844 3.29688 7.8291 2.55859 7.33691 2.10156C6.85059 1.64453 6.16797 1.41602 5.28906 1.41602C4.21094 1.41602 3.36426 1.81445 2.74902 2.61133C2.13965 3.4082 1.83496 4.54199 1.83496 6.0127V7.25195C1.83496 8.64062 2.125 9.74512 2.70508 10.5654C3.28516 11.3857 4.09668 11.7959 5.13965 11.7959C6.07715 11.7959 6.79492 11.585 7.29297 11.1631C7.79688 10.7354 8.13086 9.99414 8.29492 8.93945H9.99121ZM22.1465 7.01465C22.1465 8.26855 21.9355 9.36426 21.5137 10.3018C21.0918 11.2334 20.4941 11.9453 19.7207 12.4375C18.9473 12.9297 18.0449 13.1758 17.0137 13.1758C16.0059 13.1758 15.1123 12.9297 14.333 12.4375C13.5537 11.9395 12.9473 11.2334 12.5137 10.3193C12.0859 9.39941 11.8662 8.33594 11.8545 7.12891V6.20605C11.8545 4.97559 12.0684 3.88867 12.4961 2.94531C12.9238 2.00195 13.5273 1.28125 14.3066 0.783203C15.0918 0.279297 15.9883 0.0273438 16.9961 0.0273438C18.0215 0.0273438 18.9238 0.276367 19.7031 0.774414C20.4883 1.2666 21.0918 1.98438 21.5137 2.92773C21.9355 3.86523 22.1465 4.95801 22.1465 6.20605V7.01465ZM20.4678 6.18848C20.4678 4.6709 20.1631 3.50781 19.5537 2.69922C18.9443 1.88477 18.0918 1.47754 16.9961 1.47754C15.9297 1.47754 15.0889 1.88477 14.4736 2.69922C13.8643 3.50781 13.5508 4.63281 13.5332 6.07422V7.01465C13.5332 8.48535 13.8408 9.64258 14.4561 10.4863C15.0771 11.3242 15.9297 11.7432 17.0137 11.7432C18.1035 11.7432 18.9473 11.3477 19.5449 10.5566C20.1426 9.75977 20.4502 8.62012 20.4678 7.1377V6.18848ZM26.8574 0.203125L31.041 10.6445L35.2246 0.203125H37.4131V13H35.7256V8.0166L35.8838 2.6377L31.6826 13H30.3906L26.1982 2.66406L26.3652 8.0166V13H24.6777V0.203125H26.8574Z" fill="black"/>
</svg>
